<svg width="20" height="12" viewBox="0 0 20 12" fill="none" xmlns="http://www.w3.org/2000/svg">
<path d="M7.4254 3.67543C7.35083 3.41619 7.24607 3.18714 7.11113 2.98828C6.97619 2.78587 6.81106 2.61541 6.61574 2.47692C6.42398 2.33487 6.20381 2.22656 5.95523 2.15199C5.7102 2.07742 5.43854 2.04013 5.14025 2.04013C4.58272 2.04013 4.09266 2.17862 3.67008 2.45561C3.25104 2.7326 2.92434 3.13565 2.68996 3.66477C2.45559 4.19034 2.3384 4.8331 2.3384 5.59304C2.3384 6.35298 2.45381 6.99929 2.68464 7.53196C2.91546 8.06463 3.24216 8.47124 3.66475 8.75178C4.08734 9.02876 4.58627 9.16726 5.16155 9.16726C5.68357 9.16726 6.12924 9.07493 6.49856 8.89027C6.87143 8.70206 7.15552 8.4375 7.35083 8.09659C7.54969 7.75568 7.64912 7.35263 7.64912 6.88743L8.11788 6.95668H5.30538V5.22017H9.87036V6.59446C9.87036 7.55327 9.66795 8.37713 9.26312 9.06605C8.85829 9.75142 8.30076 10.2805 7.59053 10.6534C6.8803 11.0227 6.06709 11.2074 5.1509 11.2074C4.12817 11.2074 3.22974 10.9819 2.45559 10.5309C1.68144 10.0763 1.07775 9.43182 0.644508 8.5973C0.214821 7.75923 -2.28882e-05 6.76491 -2.28882e-05 5.61435C-2.28882e-05 4.73011 0.127818 3.94176 0.3835 3.24929C0.642733 2.55327 1.00495 1.96378 1.47015 1.48082C1.93535 0.997869 2.47689 0.630327 3.09479 0.378196C3.71269 0.126065 4.38208 0 5.10296 0C5.72086 0 6.29614 0.0905541 6.82881 0.271662C7.36148 0.449219 7.83378 0.70135 8.24572 1.02805C8.6612 1.35476 9.00033 1.74361 9.26312 2.1946C9.5259 2.64205 9.69458 3.13565 9.76915 3.67543H7.4254Z" fill="white"/>
<path d="M10.8297 11.0583V0.149148H15.1336C15.9611 0.149148 16.666 0.307173 17.2484 0.623225C17.8307 0.935725 18.2746 1.37074 18.58 1.92827C18.889 2.48224 19.0435 3.12145 19.0435 3.84588C19.0435 4.57031 18.8872 5.20952 18.5747 5.76349C18.2622 6.31747 17.8094 6.74893 17.2164 7.05788C16.6269 7.36683 15.9131 7.52131 15.0751 7.52131H12.3318V5.67294H14.7022C15.1461 5.67294 15.5118 5.59659 15.7995 5.44389C16.0907 5.28764 16.3073 5.0728 16.4493 4.79936C16.5949 4.52237 16.6677 4.20455 16.6677 3.84588C16.6677 3.48366 16.5949 3.16761 16.4493 2.89773C16.3073 2.62429 16.0907 2.413 15.7995 2.26385C15.5083 2.11115 15.139 2.0348 14.6915 2.0348H13.1361V9.55835L10.8297 11.0583Z" fill="white"/>
<path d="M18.3704 10.0583C18.3704 10.6106 17.9227 11.0583 17.3704 11.0583C16.8181 11.0583 16.3704 10.6106 16.3704 10.0583C16.3704 9.50606 16.8181 9.05835 17.3704 9.05835C17.9227 9.05835 18.3704 9.50606 18.3704 10.0583Z" fill="#8B8BFF"/>
</svg>
