<svg width="29" height="20" viewBox="0 0 29 20" fill="none" xmlns="http://www.w3.org/2000/svg">
<path d="M5.94034 2.94034C5.88068 2.73295 5.79688 2.54972 5.68892 2.39062C5.58097 2.22869 5.44886 2.09233 5.29261 1.98153C5.1392 1.8679 4.96307 1.78125 4.7642 1.72159C4.56818 1.66193 4.35085 1.6321 4.11222 1.6321C3.66619 1.6321 3.27415 1.7429 2.93608 1.96449C2.60085 2.18608 2.33949 2.50852 2.15199 2.93182C1.96449 3.35227 1.87074 3.86648 1.87074 4.47443C1.87074 5.08239 1.96307 5.59943 2.14773 6.02557C2.33239 6.4517 2.59375 6.77699 2.93182 7.00142C3.26989 7.22301 3.66903 7.33381 4.12926 7.33381C4.54688 7.33381 4.90341 7.25994 5.19886 7.11222C5.49716 6.96165 5.72443 6.75 5.88068 6.47727C6.03977 6.20455 6.11932 5.8821 6.11932 5.50994L6.49432 5.56534H4.24432V4.17614H7.89631V5.27557C7.89631 6.04261 7.73438 6.7017 7.41051 7.25284C7.08665 7.80114 6.64062 8.22443 6.07244 8.52273C5.50426 8.81818 4.85369 8.96591 4.12074 8.96591C3.30256 8.96591 2.58381 8.78551 1.96449 8.42472C1.34517 8.06108 0.862216 7.54545 0.515625 6.87784C0.171875 6.20739 0 5.41193 0 4.49148C0 3.78409 0.102273 3.15341 0.306818 2.59943C0.514205 2.04261 0.803977 1.57102 1.17614 1.18466C1.5483 0.798295 1.98153 0.504261 2.47585 0.302557C2.97017 0.100852 3.50568 0 4.08239 0C4.5767 0 5.03693 0.0724432 5.46307 0.21733C5.8892 0.359375 6.26705 0.56108 6.59659 0.822443C6.92898 1.08381 7.20028 1.39489 7.41051 1.75568C7.62074 2.11364 7.75568 2.50852 7.81534 2.94034H5.94034Z" fill="white"/>
<path d="M11.5112 8.97443C10.8379 8.97443 10.2583 8.83807 9.77254 8.56534C9.28959 8.28977 8.91743 7.90057 8.65606 7.39773C8.3947 6.89205 8.26402 6.29403 8.26402 5.60369C8.26402 4.9304 8.3947 4.33949 8.65606 3.83097C8.91743 3.32244 9.28533 2.92614 9.75976 2.64205C10.237 2.35795 10.7967 2.21591 11.4387 2.21591C11.8706 2.21591 12.2725 2.28551 12.6447 2.42472C13.0197 2.56108 13.3464 2.76705 13.6248 3.04261C13.9061 3.31818 14.1248 3.66477 14.2811 4.08239C14.4373 4.49716 14.5154 4.98295 14.5154 5.53977V6.03835H8.98845V4.91335H12.8066C12.8066 4.65199 12.7498 4.42045 12.6362 4.21875C12.5225 4.01705 12.3649 3.85938 12.1632 3.74574C11.9643 3.62926 11.7328 3.57102 11.4686 3.57102C11.193 3.57102 10.9487 3.63494 10.7356 3.76278C10.5254 3.88778 10.3606 4.05682 10.2413 4.26989C10.122 4.48011 10.0609 4.71449 10.0581 4.97301V6.04261C10.0581 6.36648 10.1177 6.64631 10.237 6.8821C10.3592 7.1179 10.5311 7.29972 10.7527 7.42756C10.9742 7.5554 11.237 7.61932 11.541 7.61932C11.7427 7.61932 11.9274 7.59091 12.095 7.53409C12.2626 7.47727 12.4061 7.39205 12.5254 7.27841C12.6447 7.16477 12.7356 7.02557 12.7981 6.8608L14.4771 6.97159C14.3919 7.375 14.2171 7.72727 13.9529 8.02841C13.6916 8.3267 13.3535 8.55966 12.9387 8.72727C12.5268 8.89205 12.051 8.97443 11.5112 8.97443Z" fill="white"/>
<path d="M16.8466 8.97017C16.429 8.97017 16.0568 8.89773 15.7301 8.75284C15.4034 8.60511 15.1449 8.38778 14.9545 8.10085C14.767 7.81108 14.6733 7.45028 14.6733 7.01847C14.6733 6.65483 14.74 6.34943 14.8736 6.10227C15.0071 5.85511 15.1889 5.65625 15.419 5.50568C15.6491 5.35511 15.9105 5.24148 16.2031 5.16477C16.4986 5.08807 16.8082 5.03409 17.1321 5.00284C17.5128 4.96307 17.8196 4.92614 18.0525 4.89205C18.2855 4.85511 18.4545 4.80114 18.5596 4.73011C18.6648 4.65909 18.7173 4.55398 18.7173 4.41477V4.3892C18.7173 4.11932 18.6321 3.91051 18.4616 3.76278C18.294 3.61506 18.0554 3.54119 17.7457 3.54119C17.419 3.54119 17.1591 3.61364 16.9659 3.75852C16.7727 3.90057 16.6449 4.07955 16.5824 4.29545L14.9034 4.15909C14.9886 3.76136 15.1562 3.41761 15.4062 3.12784C15.6562 2.83523 15.9787 2.6108 16.3736 2.45455C16.7713 2.29545 17.2315 2.21591 17.7542 2.21591C18.1179 2.21591 18.4659 2.25852 18.7983 2.34375C19.1335 2.42898 19.4304 2.56108 19.6889 2.74006C19.9503 2.91903 20.1562 3.14915 20.3068 3.4304C20.4574 3.70881 20.5327 4.04261 20.5327 4.43182V8.84659H18.8111V7.93892H18.7599C18.6548 8.14347 18.5142 8.32386 18.3381 8.48011C18.1619 8.63352 17.9503 8.75426 17.7031 8.84233C17.456 8.92756 17.1704 8.97017 16.8466 8.97017ZM17.3665 7.71733C17.6335 7.71733 17.8693 7.66477 18.0738 7.55966C18.2784 7.4517 18.4389 7.30682 18.5554 7.125C18.6719 6.94318 18.7301 6.73722 18.7301 6.5071V5.8125C18.6733 5.84943 18.5952 5.88352 18.4957 5.91477C18.3991 5.94318 18.2898 5.97017 18.1676 5.99574C18.0454 6.01847 17.9233 6.03977 17.8011 6.05966C17.679 6.0767 17.5682 6.09233 17.4687 6.10653C17.2557 6.13778 17.0696 6.1875 16.9105 6.25568C16.7514 6.32386 16.6278 6.41619 16.5398 6.53267C16.4517 6.64631 16.4077 6.78835 16.4077 6.95881C16.4077 7.20597 16.4971 7.39489 16.6761 7.52557C16.8579 7.65341 17.0881 7.71733 17.3665 7.71733Z" fill="white"/>
<path d="M23.0364 5.0625V8.84659H21.221V2.30114H22.9512V3.45597H23.0279C23.1727 3.07528 23.4156 2.77415 23.7565 2.55256C24.0975 2.32813 24.5108 2.21591 24.9966 2.21591C25.4512 2.21591 25.8475 2.31534 26.1855 2.5142C26.5236 2.71307 26.7864 2.99716 26.9739 3.36648C27.1614 3.73295 27.2551 4.17045 27.2551 4.67898V8.84659H25.4398V5.00284C25.4426 4.60227 25.3404 4.28977 25.133 4.06534C24.9256 3.83807 24.6401 3.72443 24.2764 3.72443C24.0321 3.72443 23.8162 3.77699 23.6287 3.8821C23.444 3.98722 23.2992 4.14063 23.194 4.34233C23.0918 4.54119 23.0392 4.78125 23.0364 5.0625Z" fill="white"/>
<path d="M0.153409 19.8466V11.1193H3.59659C4.25852 11.1193 4.82244 11.2457 5.28835 11.4986C5.75426 11.7486 6.10938 12.0966 6.35369 12.5426C6.60085 12.9858 6.72443 13.4972 6.72443 14.0767C6.72443 14.6563 6.59943 15.1676 6.34943 15.6108C6.09943 16.054 5.73722 16.3991 5.26278 16.6463C4.79119 16.8935 4.22017 17.017 3.54972 17.017H1.35511V15.5384H3.25142C3.60653 15.5384 3.89915 15.4773 4.12926 15.3551C4.36222 15.2301 4.53551 15.0582 4.64915 14.8395C4.76563 14.6179 4.82386 14.3636 4.82386 14.0767C4.82386 13.7869 4.76563 13.5341 4.64915 13.3182C4.53551 13.0994 4.36222 12.9304 4.12926 12.8111C3.89631 12.6889 3.60085 12.6278 3.2429 12.6278H1.99858V19.8466H0.153409Z" fill="white"/>
<path d="M8.85954 19.9702C8.44193 19.9702 8.06977 19.8977 7.74307 19.7528C7.41636 19.6051 7.15784 19.3878 6.9675 19.1009C6.78 18.8111 6.68625 18.4503 6.68625 18.0185C6.68625 17.6548 6.75301 17.3494 6.88653 17.1023C7.02006 16.8551 7.20187 16.6563 7.43199 16.5057C7.6621 16.3551 7.92347 16.2415 8.21608 16.1648C8.51153 16.0881 8.82119 16.0341 9.14506 16.0028C9.52574 15.9631 9.83256 15.9261 10.0655 15.892C10.2985 15.8551 10.4675 15.8011 10.5726 15.7301C10.6777 15.6591 10.7303 15.554 10.7303 15.4148V15.3892C10.7303 15.1193 10.6451 14.9105 10.4746 14.7628C10.307 14.6151 10.0684 14.5412 9.75869 14.5412C9.43199 14.5412 9.17205 14.6136 8.97886 14.7585C8.78568 14.9006 8.65784 15.0795 8.59534 15.2955L6.91636 15.1591C7.00159 14.7614 7.1692 14.4176 7.4192 14.1278C7.6692 13.8352 7.99165 13.6108 8.38653 13.4545C8.78426 13.2955 9.24449 13.2159 9.76722 13.2159C10.1309 13.2159 10.4789 13.2585 10.8112 13.3438C11.1465 13.429 11.4434 13.5611 11.7019 13.7401C11.9632 13.919 12.1692 14.1491 12.3198 14.4304C12.4703 14.7088 12.5456 15.0426 12.5456 15.4318V19.8466H10.824V18.9389H10.7729C10.6678 19.1435 10.5272 19.3239 10.351 19.4801C10.1749 19.6335 9.96324 19.7543 9.71608 19.8423C9.46892 19.9276 9.18341 19.9702 8.85954 19.9702ZM9.37943 18.7173C9.64648 18.7173 9.88227 18.6648 10.0868 18.5597C10.2914 18.4517 10.4519 18.3068 10.5684 18.125C10.6848 17.9432 10.7431 17.7372 10.7431 17.5071V16.8125C10.6862 16.8494 10.6081 16.8835 10.5087 16.9148C10.4121 16.9432 10.3027 16.9702 10.1806 16.9957C10.0584 17.0185 9.93625 17.0398 9.81409 17.0597C9.69193 17.0767 9.58114 17.0923 9.4817 17.1065C9.26864 17.1378 9.08256 17.1875 8.92347 17.2557C8.76437 17.3239 8.64079 17.4162 8.55273 17.5327C8.46466 17.6463 8.42062 17.7884 8.42062 17.9588C8.42062 18.206 8.51011 18.3949 8.68909 18.5256C8.87091 18.6534 9.10102 18.7173 9.37943 18.7173Z" fill="white"/>
<path d="M17.4314 17.0597V13.3011H19.2468V19.8466H17.5039V18.6577H17.4357C17.288 19.0412 17.0422 19.3494 16.6985 19.5824C16.3576 19.8153 15.9414 19.9318 15.4499 19.9318C15.0124 19.9318 14.6275 19.8324 14.2951 19.6335C13.9627 19.4347 13.7028 19.152 13.5153 18.7855C13.3306 18.419 13.2368 17.9801 13.234 17.4688V13.3011H15.0493V17.1449C15.0522 17.5312 15.1559 17.8366 15.3604 18.0611C15.565 18.2855 15.8391 18.3977 16.1829 18.3977C16.4016 18.3977 16.6062 18.348 16.7965 18.2486C16.9868 18.1463 17.1403 17.9957 17.2567 17.7969C17.3761 17.598 17.4343 17.3523 17.4314 17.0597Z" fill="white"/>
<path d="M21.7942 11.1193V19.8466H19.9788V11.1193H21.7942Z" fill="white"/>
<path d="M25.4858 19.9744C24.8238 19.9744 24.2514 19.8338 23.7684 19.5526C23.2883 19.2685 22.9176 18.8736 22.6562 18.3679C22.3949 17.8594 22.2642 17.2699 22.2642 16.5994C22.2642 15.9233 22.3949 15.3324 22.6562 14.8267C22.9176 14.3182 23.2883 13.9233 23.7684 13.642C24.2514 13.358 24.8238 13.2159 25.4858 13.2159C26.1477 13.2159 26.7187 13.358 27.1988 13.642C27.6818 13.9233 28.0539 14.3182 28.3153 14.8267C28.5767 15.3324 28.7074 15.9233 28.7074 16.5994C28.7074 17.2699 28.5767 17.8594 28.3153 18.3679C28.0539 18.8736 27.6818 19.2685 27.1988 19.5526C26.7187 19.8338 26.1477 19.9744 25.4858 19.9744ZM25.4943 18.5682C25.7954 18.5682 26.0468 18.483 26.2486 18.3125C26.4503 18.1392 26.6022 17.9034 26.7045 17.6051C26.8096 17.3068 26.8622 16.9673 26.8622 16.5866C26.8622 16.206 26.8096 15.8665 26.7045 15.5682C26.6022 15.2699 26.4503 15.0341 26.2486 14.8608C26.0468 14.6875 25.7954 14.6009 25.4943 14.6009C25.1903 14.6009 24.9346 14.6875 24.7272 14.8608C24.5227 15.0341 24.3679 15.2699 24.2628 15.5682C24.1605 15.8665 24.1093 16.206 24.1093 16.5866C24.1093 16.9673 24.1605 17.3068 24.2628 17.6051C24.3679 17.9034 24.5227 18.1392 24.7272 18.3125C24.9346 18.483 25.1903 18.5682 25.4943 18.5682Z" fill="white"/>
</svg>
